<?xml version="1.0" encoding="UTF-8"?> <svg xmlns="http://www.w3.org/2000/svg" xmlns:xlink="http://www.w3.org/1999/xlink" id="Group_52" data-name="Group 52" width="1000" height="618" viewBox="0 0 1000 618"><defs><clipPath id="clip-path"><rect id="Rectangle_47" data-name="Rectangle 47" width="80" height="80" transform="translate(1708 -190)" fill="#fff"></rect></clipPath><clipPath id="clip-path-2"><rect id="Rectangle_50" data-name="Rectangle 50" width="65" height="65" transform="translate(1708 -190)" fill="#fff"></rect></clipPath><clipPath id="clip-path-3"><rect id="Rectangle_48" data-name="Rectangle 48" width="65" height="65" transform="translate(1813 -189.501)" fill="#fff"></rect></clipPath><clipPath id="clip-path-4"><rect id="Rectangle_49" data-name="Rectangle 49" width="65" height="65" transform="translate(1911 -189.998)" fill="#fff"></rect></clipPath></defs><rect id="Rectangle_51" data-name="Rectangle 51" width="1000" height="618" fill="#fff" opacity="0"></rect><g id="Group_51" data-name="Group 51"><path id="Path_27" data-name="Path 27" d="M-79.277-14.277v9.238a5.479,5.479,0,0,1-.679,2.769A4.523,4.523,0,0,1-81.919-.444,6.822,6.822,0,0,1-84.99.2a5.745,5.745,0,0,1-4.131-1.406A5.09,5.09,0,0,1-90.6-5.078v-9.2h2.344v9.033a3.609,3.609,0,0,0,.82,2.607,3.381,3.381,0,0,0,2.52.84q3.3,0,3.3-3.467v-9.014ZM-66.367,0h-2.3V-6.641a2.906,2.906,0,0,0-.5-1.865,1.944,1.944,0,0,0-1.6-.615,2.539,2.539,0,0,0-2.129.859,4.745,4.745,0,0,0-.674,2.881V0h-2.295V-10.8h1.8l.322,1.416h.117a3.2,3.2,0,0,1,1.387-1.191A4.647,4.647,0,0,1-70.254-11q3.887,0,3.887,3.955Zm5.488,0h-2.295V-10.8h2.295Zm-2.432-13.662a1.271,1.271,0,0,1,.337-.947,1.313,1.313,0,0,1,.962-.332,1.285,1.285,0,0,1,.942.332,1.271,1.271,0,0,1,.337.947,1.247,1.247,0,0,1-.337.923,1.274,1.274,0,0,1-.942.337,1.3,1.3,0,0,1-.962-.337A1.247,1.247,0,0,1-63.311-13.662ZM-48.5,0h-2.3V-6.66a3.02,3.02,0,0,0-.469-1.851,1.73,1.73,0,0,0-1.465-.61,2.234,2.234,0,0,0-1.948.864,5.071,5.071,0,0,0-.62,2.876V0H-57.6V-10.8h1.8l.322,1.416h.117a2.992,2.992,0,0,1,1.3-1.191,4.2,4.2,0,0,1,1.88-.42q2.49,0,3.3,1.7h.156a3.293,3.293,0,0,1,1.348-1.25A4.277,4.277,0,0,1-45.381-11a3.628,3.628,0,0,1,2.817.977,4.325,4.325,0,0,1,.884,2.979V0h-2.295V-6.66a3,3,0,0,0-.474-1.851,1.744,1.744,0,0,0-1.47-.61,2.278,2.278,0,0,0-1.958.835,4.3,4.3,0,0,0-.62,2.563Zm19.6-5.42a5.9,5.9,0,0,1-1.357,4.131A4.864,4.864,0,0,1-34.033.2a5.178,5.178,0,0,1-2.676-.684A4.513,4.513,0,0,1-38.5-2.451a6.685,6.685,0,0,1-.625-2.969,5.855,5.855,0,0,1,1.348-4.1A4.886,4.886,0,0,1-33.975-11a4.758,4.758,0,0,1,3.711,1.509A5.828,5.828,0,0,1-28.9-5.42Zm-7.861,0q0,3.74,2.764,3.74,2.734,0,2.734-3.74,0-3.7-2.754-3.7a2.348,2.348,0,0,0-2.095.957A4.87,4.87,0,0,0-36.758-5.42ZM-22.617.2A3.762,3.762,0,0,1-25.771-1.27,6.584,6.584,0,0,1-26.9-5.381a6.605,6.605,0,0,1,1.147-4.136A3.8,3.8,0,0,1-22.578-11a3.723,3.723,0,0,1,3.242,1.572h.117a13.757,13.757,0,0,1-.166-1.836V-15.2h2.3V0h-1.8l-.4-1.416h-.107A3.669,3.669,0,0,1-22.617.2ZM-22-1.66a2.5,2.5,0,0,0,2.061-.8,4.19,4.19,0,0,0,.664-2.583v-.322a4.841,4.841,0,0,0-.664-2.9,2.463,2.463,0,0,0-2.08-.859,2.11,2.11,0,0,0-1.865.981,5.03,5.03,0,0,0-.654,2.8A4.9,4.9,0,0,0-23.906-2.6,2.143,2.143,0,0,0-22-1.66ZM-7.041,0-7.5-1.5h-.078A4.425,4.425,0,0,1-9.15-.161,4.972,4.972,0,0,1-11.182.2a3.438,3.438,0,0,1-2.485-.859A3.216,3.216,0,0,1-14.561-3.1a2.855,2.855,0,0,1,1.24-2.52,7.151,7.151,0,0,1,3.779-.928L-7.676-6.6v-.576a2.184,2.184,0,0,0-.483-1.548,1.971,1.971,0,0,0-1.5-.513,5.183,5.183,0,0,0-1.592.244,12.012,12.012,0,0,0-1.465.576l-.742-1.641a7.988,7.988,0,0,1,1.924-.7A8.853,8.853,0,0,1-9.561-11a4.672,4.672,0,0,1,3.11.9A3.518,3.518,0,0,1-5.4-7.275V0Zm-3.418-1.562a2.843,2.843,0,0,0,2.007-.7A2.531,2.531,0,0,0-7.7-4.219v-.937L-9.082-5.1a4.745,4.745,0,0,0-2.358.542,1.647,1.647,0,0,0-.737,1.479,1.444,1.444,0,0,0,.43,1.118A1.846,1.846,0,0,0-10.459-1.562ZM.1,0H-2.2V-15.2H.1ZM17.676,0,16.25-3.965H10.791L9.395,0H6.934l5.342-14.336h2.539L20.156,0ZM15.635-5.977,14.3-9.863q-.146-.391-.405-1.23t-.356-1.23A21.886,21.886,0,0,1,12.764-9.7L11.475-5.977ZM22.041,0V-14.277h2.334V0ZM42.2,0h-2.3V-6.66a3.02,3.02,0,0,0-.469-1.851,1.73,1.73,0,0,0-1.465-.61,2.234,2.234,0,0,0-1.948.864,5.071,5.071,0,0,0-.62,2.876V0H33.1V-10.8h1.8l.322,1.416h.117a2.992,2.992,0,0,1,1.3-1.191,4.2,4.2,0,0,1,1.88-.42q2.49,0,3.3,1.7h.156a3.293,3.293,0,0,1,1.348-1.25A4.277,4.277,0,0,1,45.313-11a3.628,3.628,0,0,1,2.817.977,4.325,4.325,0,0,1,.884,2.979V0H46.719V-6.66a3,3,0,0,0-.474-1.851,1.744,1.744,0,0,0-1.47-.61,2.278,2.278,0,0,0-1.958.835,4.3,4.3,0,0,0-.62,2.563ZM61.8-5.42a5.9,5.9,0,0,1-1.357,4.131A4.864,4.864,0,0,1,56.66.2a5.178,5.178,0,0,1-2.676-.684A4.513,4.513,0,0,1,52.2-2.451a6.685,6.685,0,0,1-.625-2.969,5.855,5.855,0,0,1,1.348-4.1A4.886,4.886,0,0,1,56.719-11,4.758,4.758,0,0,1,60.43-9.487,5.828,5.828,0,0,1,61.8-5.42Zm-7.861,0q0,3.74,2.764,3.74,2.734,0,2.734-3.74,0-3.7-2.754-3.7a2.348,2.348,0,0,0-2.095.957A4.87,4.87,0,0,0,53.936-5.42ZM68.076.2A3.762,3.762,0,0,1,64.922-1.27a6.584,6.584,0,0,1-1.133-4.111,6.605,6.605,0,0,1,1.147-4.136A3.8,3.8,0,0,1,68.115-11a3.723,3.723,0,0,1,3.242,1.572h.117a13.756,13.756,0,0,1-.166-1.836V-15.2h2.3V0h-1.8l-.4-1.416h-.107A3.669,3.669,0,0,1,68.076.2Zm.615-1.855a2.5,2.5,0,0,0,2.061-.8,4.19,4.19,0,0,0,.664-2.583v-.322a4.841,4.841,0,0,0-.664-2.9,2.463,2.463,0,0,0-2.08-.859,2.11,2.11,0,0,0-1.865.981,5.03,5.03,0,0,0-.654,2.8A4.9,4.9,0,0,0,66.787-2.6,2.143,2.143,0,0,0,68.691-1.66ZM81.611.2a5.225,5.225,0,0,1-3.94-1.47A5.579,5.579,0,0,1,76.25-5.322a6.121,6.121,0,0,1,1.318-4.16A4.554,4.554,0,0,1,81.191-11,4.451,4.451,0,0,1,84.57-9.7a4.963,4.963,0,0,1,1.24,3.574v1.24h-7.2a3.548,3.548,0,0,0,.85,2.417,2.959,2.959,0,0,0,2.256.845A8.328,8.328,0,0,0,83.5-1.8a9.342,9.342,0,0,0,1.772-.6V-.537a7.046,7.046,0,0,1-1.7.566A10.419,10.419,0,0,1,81.611.2Zm-.42-9.453a2.306,2.306,0,0,0-1.753.693,3.3,3.3,0,0,0-.786,2.021h4.9a2.99,2.99,0,0,0-.645-2.026A2.2,2.2,0,0,0,81.191-9.258ZM90.713,0H88.418V-15.2h2.295Z" transform="translate(129 40)" fill="#051c2c"></path><g id="Group_25" data-name="Group 25" transform="translate(17 -51)"><g id="Rectangle_27" data-name="Rectangle 27" transform="translate(762 148)" fill="#fff" stroke="#1b54f8" stroke-width="1"><rect width="185" height="104" rx="4" stroke="none"></rect><rect x="0.5" y="0.5" width="184" height="103" rx="3.5" fill="none"></rect></g><path id="Path_29" data-name="Path 29" d="M-70.088,0V-14.277h2.334V-2h6.045V0ZM-57.2,0h-2.295V-10.8H-57.2Zm-2.432-13.662a1.271,1.271,0,0,1,.337-.947,1.313,1.313,0,0,1,.962-.332,1.285,1.285,0,0,1,.942.332,1.271,1.271,0,0,1,.337.947,1.247,1.247,0,0,1-.337.923,1.274,1.274,0,0,1-.942.337,1.3,1.3,0,0,1-.962-.337A1.247,1.247,0,0,1-59.629-13.662ZM-44.814,0h-2.3V-6.66a3.02,3.02,0,0,0-.469-1.851,1.73,1.73,0,0,0-1.465-.61A2.234,2.234,0,0,0-51-8.257a5.071,5.071,0,0,0-.62,2.876V0h-2.295V-10.8h1.8l.322,1.416h.117a2.992,2.992,0,0,1,1.3-1.191A4.2,4.2,0,0,1-48.5-11q2.49,0,3.3,1.7h.156a3.293,3.293,0,0,1,1.348-1.25A4.277,4.277,0,0,1-41.7-11a3.628,3.628,0,0,1,2.817.977A4.325,4.325,0,0,1-38-7.041V0h-2.295V-6.66a3,3,0,0,0-.474-1.851,1.744,1.744,0,0,0-1.47-.61,2.278,2.278,0,0,0-1.958.835,4.3,4.3,0,0,0-.62,2.563ZM-32.5,0h-2.295V-10.8H-32.5Zm-2.432-13.662a1.271,1.271,0,0,1,.337-.947,1.313,1.313,0,0,1,.962-.332,1.285,1.285,0,0,1,.942.332,1.271,1.271,0,0,1,.337.947,1.247,1.247,0,0,1-.337.923,1.274,1.274,0,0,1-.942.337,1.3,1.3,0,0,1-.962-.337A1.247,1.247,0,0,1-34.932-13.662Zm9.736,12a5.581,5.581,0,0,0,1.68-.264V-.2A4.633,4.633,0,0,1-24.5.083,6.762,6.762,0,0,1-25.742.2Q-29,.2-29-3.242v-5.82h-1.475v-1.016l1.582-.84.781-2.285H-26.7v2.4h3.076v1.738H-26.7v5.781a1.622,1.622,0,0,0,.415,1.226A1.513,1.513,0,0,0-25.2-1.66ZM-16.641.2a5.225,5.225,0,0,1-3.94-1.47A5.579,5.579,0,0,1-22-5.322a6.121,6.121,0,0,1,1.318-4.16A4.554,4.554,0,0,1-17.061-11a4.451,4.451,0,0,1,3.379,1.3,4.963,4.963,0,0,1,1.24,3.574v1.24h-7.2a3.548,3.548,0,0,0,.85,2.417,2.959,2.959,0,0,0,2.256.845A8.328,8.328,0,0,0-14.751-1.8a9.342,9.342,0,0,0,1.772-.6V-.537a7.046,7.046,0,0,1-1.7.566A10.42,10.42,0,0,1-16.641.2Zm-.42-9.453a2.306,2.306,0,0,0-1.753.693A3.3,3.3,0,0,0-19.6-6.543h4.9a2.99,2.99,0,0,0-.645-2.026A2.2,2.2,0,0,0-17.061-9.258ZM-6.191.2A3.762,3.762,0,0,1-9.346-1.27a6.584,6.584,0,0,1-1.133-4.111A6.605,6.605,0,0,1-9.331-9.517,3.8,3.8,0,0,1-6.152-11,3.723,3.723,0,0,1-2.91-9.424h.117a13.757,13.757,0,0,1-.166-1.836V-15.2h2.3V0h-1.8l-.4-1.416h-.107A3.669,3.669,0,0,1-6.191.2Zm.615-1.855a2.5,2.5,0,0,0,2.061-.8,4.19,4.19,0,0,0,.664-2.583v-.322a4.841,4.841,0,0,0-.664-2.9A2.463,2.463,0,0,0-5.6-9.121a2.11,2.11,0,0,0-1.865.981,5.03,5.03,0,0,0-.654,2.8A4.9,4.9,0,0,0-7.48-2.6,2.143,2.143,0,0,0-5.576-1.66ZM17.4-5.42a5.9,5.9,0,0,1-1.357,4.131A4.864,4.864,0,0,1,12.266.2,5.178,5.178,0,0,1,9.59-.488,4.513,4.513,0,0,1,7.8-2.451,6.685,6.685,0,0,1,7.178-5.42a5.855,5.855,0,0,1,1.348-4.1A4.886,4.886,0,0,1,12.324-11a4.758,4.758,0,0,1,3.711,1.509A5.828,5.828,0,0,1,17.4-5.42Zm-7.861,0q0,3.74,2.764,3.74,2.734,0,2.734-3.74,0-3.7-2.754-3.7a2.348,2.348,0,0,0-2.095.957A4.87,4.87,0,0,0,9.541-5.42ZM27.656,0l-.322-1.416h-.117A3.256,3.256,0,0,1,25.854-.234,4.555,4.555,0,0,1,23.838.2a3.959,3.959,0,0,1-2.93-.977,4.048,4.048,0,0,1-.967-2.959V-10.8h2.314v6.66a2.889,2.889,0,0,0,.508,1.86,1.939,1.939,0,0,0,1.592.62,2.534,2.534,0,0,0,2.124-.864,4.762,4.762,0,0,0,.679-2.9V-10.8h2.3V0Zm9.1-1.66a5.581,5.581,0,0,0,1.68-.264V-.2a4.633,4.633,0,0,1-.981.278A6.762,6.762,0,0,1,36.211.2q-3.262,0-3.262-3.437v-5.82H31.475v-1.016l1.582-.84.781-2.285h1.416v2.4H38.33v1.738H35.254v5.781a1.622,1.622,0,0,0,.415,1.226A1.513,1.513,0,0,0,36.758-1.66ZM46.074.2a3.783,3.783,0,0,1-3.184-1.475h-.137q.137,1.367.137,1.66V4.8H40.6V-10.8h1.855q.078.3.322,1.445h.117A3.6,3.6,0,0,1,46.113-11a3.749,3.749,0,0,1,3.149,1.465A6.6,6.6,0,0,1,50.391-5.42a6.609,6.609,0,0,1-1.147,4.131A3.783,3.783,0,0,1,46.074.2Zm-.557-9.316a2.385,2.385,0,0,0-2,.8,4.15,4.15,0,0,0-.63,2.559v.342a5.052,5.052,0,0,0,.625,2.856,2.325,2.325,0,0,0,2.041.884,2.072,2.072,0,0,0,1.836-.977,5.043,5.043,0,0,0,.645-2.783,4.866,4.866,0,0,0-.64-2.749A2.134,2.134,0,0,0,45.518-9.121ZM60.674,0l-.322-1.416h-.117A3.256,3.256,0,0,1,58.872-.234,4.555,4.555,0,0,1,56.855.2a3.959,3.959,0,0,1-2.93-.977,4.048,4.048,0,0,1-.967-2.959V-10.8h2.314v6.66a2.889,2.889,0,0,0,.508,1.86,1.939,1.939,0,0,0,1.592.62A2.534,2.534,0,0,0,59.5-2.524a4.762,4.762,0,0,0,.679-2.9V-10.8h2.3V0Zm9.1-1.66a5.581,5.581,0,0,0,1.68-.264V-.2a4.633,4.633,0,0,1-.981.278A6.762,6.762,0,0,1,69.229.2q-3.262,0-3.262-3.437v-5.82H64.492v-1.016l1.582-.84.781-2.285h1.416v2.4h3.076v1.738H68.271v5.781a1.622,1.622,0,0,0,.415,1.226A1.513,1.513,0,0,0,69.775-1.66Z" transform="translate(855 208)" fill="#051c2c"></path></g><g id="Group_22" data-name="Group 22" transform="translate(17 107)"><g id="Rectangle_29" data-name="Rectangle 29" transform="translate(762 301)" fill="#fff" stroke="#1b54f8" stroke-width="1"><rect width="185" height="104" rx="4" stroke="none"></rect><rect x="0.5" y="0.5" width="184" height="103" rx="3.5" fill="none"></rect></g><path id="Path_32" data-name="Path 32" d="M-58.6,0h-2.539l-2.422-8.516q-.156-.557-.391-1.606t-.283-1.46q-.1.625-.317,1.621t-.366,1.484L-67.285,0h-2.539L-71.67-7.148l-1.875-7.129h2.383l2.041,8.32a35.96,35.96,0,0,1,.684,3.535q.107-.83.322-1.855t.391-1.66l2.324-8.34h2.314L-60.7-5.9a31.324,31.324,0,0,1,.723,3.477,25.487,25.487,0,0,1,.7-3.555l2.031-8.3h2.363Zm7.793,0h-2.295V-10.8h2.295Zm-2.432-13.662a1.271,1.271,0,0,1,.337-.947,1.313,1.313,0,0,1,.962-.332,1.285,1.285,0,0,1,.942.332,1.271,1.271,0,0,1,.337.947,1.247,1.247,0,0,1-.337.923,1.274,1.274,0,0,1-.942.337,1.3,1.3,0,0,1-.962-.337A1.247,1.247,0,0,1-53.242-13.662ZM-43.887.2A3.762,3.762,0,0,1-47.041-1.27a6.584,6.584,0,0,1-1.133-4.111,6.605,6.605,0,0,1,1.147-4.136A3.8,3.8,0,0,1-43.848-11a3.723,3.723,0,0,1,3.242,1.572h.117a13.757,13.757,0,0,1-.166-1.836V-15.2h2.3V0h-1.8l-.4-1.416h-.107A3.669,3.669,0,0,1-43.887.2Zm.615-1.855a2.5,2.5,0,0,0,2.061-.8,4.19,4.19,0,0,0,.664-2.583v-.322a4.841,4.841,0,0,0-.664-2.9,2.463,2.463,0,0,0-2.08-.859,2.11,2.11,0,0,0-1.865.981,5.03,5.03,0,0,0-.654,2.8A4.9,4.9,0,0,0-45.176-2.6,2.143,2.143,0,0,0-43.271-1.66ZM-30.352.2a5.225,5.225,0,0,1-3.94-1.47,5.579,5.579,0,0,1-1.421-4.048,6.121,6.121,0,0,1,1.318-4.16A4.554,4.554,0,0,1-30.771-11a4.451,4.451,0,0,1,3.379,1.3,4.963,4.963,0,0,1,1.24,3.574v1.24h-7.2a3.548,3.548,0,0,0,.85,2.417,2.959,2.959,0,0,0,2.256.845A8.328,8.328,0,0,0-28.462-1.8a9.342,9.342,0,0,0,1.772-.6V-.537a7.046,7.046,0,0,1-1.7.566A10.42,10.42,0,0,1-30.352.2Zm-.42-9.453a2.306,2.306,0,0,0-1.753.693,3.3,3.3,0,0,0-.786,2.021h4.9a2.99,2.99,0,0,0-.645-2.026A2.2,2.2,0,0,0-30.771-9.258ZM-18.066-11a5.524,5.524,0,0,1,1.143.1l-.225,2.139a4.337,4.337,0,0,0-1.016-.117,2.939,2.939,0,0,0-2.231.9,3.247,3.247,0,0,0-.854,2.334V0h-2.295V-10.8h1.8l.3,1.9h.117a4.279,4.279,0,0,1,1.4-1.533A3.331,3.331,0,0,1-18.066-11Zm13.818,0a5.524,5.524,0,0,1,1.143.1L-3.33-8.76a4.337,4.337,0,0,0-1.016-.117,2.939,2.939,0,0,0-2.231.9,3.248,3.248,0,0,0-.854,2.334V0H-9.727V-10.8h1.8l.3,1.9h.117a4.279,4.279,0,0,1,1.4-1.533A3.331,3.331,0,0,1-4.248-11Zm9.5,11L4.795-1.5H4.717A4.425,4.425,0,0,1,3.145-.161,4.972,4.972,0,0,1,1.113.2,3.438,3.438,0,0,1-1.372-.664,3.216,3.216,0,0,1-2.266-3.1a2.855,2.855,0,0,1,1.24-2.52,7.151,7.151,0,0,1,3.779-.928L4.619-6.6v-.576a2.184,2.184,0,0,0-.483-1.548,1.971,1.971,0,0,0-1.5-.513,5.183,5.183,0,0,0-1.592.244A12.012,12.012,0,0,0-.42-8.418l-.742-1.641a7.987,7.987,0,0,1,1.924-.7A8.853,8.853,0,0,1,2.734-11a4.672,4.672,0,0,1,3.11.9,3.518,3.518,0,0,1,1.05,2.822V0ZM1.836-1.562a2.843,2.843,0,0,0,2.007-.7A2.531,2.531,0,0,0,4.6-4.219v-.937L3.213-5.1a4.745,4.745,0,0,0-2.358.542A1.647,1.647,0,0,0,.117-3.076a1.444,1.444,0,0,0,.43,1.118A1.846,1.846,0,0,0,1.836-1.562ZM19.6,0h-2.3V-6.641a2.906,2.906,0,0,0-.5-1.865,1.944,1.944,0,0,0-1.6-.615,2.539,2.539,0,0,0-2.129.859,4.745,4.745,0,0,0-.674,2.881V0H10.1V-10.8h1.8l.322,1.416h.117a3.2,3.2,0,0,1,1.387-1.191A4.647,4.647,0,0,1,15.713-11Q19.6-11,19.6-7.041ZM31.914-10.8v1.26L30.068-9.2a2.979,2.979,0,0,1,.42.84A3.313,3.313,0,0,1,30.654-7.3,3.231,3.231,0,0,1,29.5-4.678a4.822,4.822,0,0,1-3.174.957,5.146,5.146,0,0,1-.937-.078,1.293,1.293,0,0,0-.742,1.074A.6.6,0,0,0,25-2.168a3,3,0,0,0,1.274.186h1.885a4.191,4.191,0,0,1,2.715.762A2.68,2.68,0,0,1,31.8.977a3.2,3.2,0,0,1-1.514,2.832,7.97,7.97,0,0,1-4.375,1,6.038,6.038,0,0,1-3.369-.781A2.525,2.525,0,0,1,21.377,1.8a2.369,2.369,0,0,1,.63-1.675A3.375,3.375,0,0,1,23.77-.82a1.725,1.725,0,0,1-.757-.63,1.59,1.59,0,0,1-.3-.913,1.572,1.572,0,0,1,.342-1.025,3.943,3.943,0,0,1,1.016-.83A3.008,3.008,0,0,1,22.71-5.4,3.461,3.461,0,0,1,22.188-7.3,3.423,3.423,0,0,1,23.3-10.029,4.66,4.66,0,0,1,26.455-11a7.69,7.69,0,0,1,.962.063,6.056,6.056,0,0,1,.757.132ZM23.428,1.68A1.262,1.262,0,0,0,24.1,2.822a3.677,3.677,0,0,0,1.88.4,5.68,5.68,0,0,0,2.793-.537,1.61,1.61,0,0,0,.918-1.426,1.07,1.07,0,0,0-.5-1,4.039,4.039,0,0,0-1.87-.3H25.576a2.442,2.442,0,0,0-1.567.464A1.521,1.521,0,0,0,23.428,1.68ZM24.414-7.3a2.174,2.174,0,0,0,.522,1.563,1.976,1.976,0,0,0,1.5.547q1.992,0,1.992-2.129a2.415,2.415,0,0,0-.493-1.626,1.874,1.874,0,0,0-1.5-.571,1.932,1.932,0,0,0-1.509.566A2.381,2.381,0,0,0,24.414-7.3ZM38.633.2a5.225,5.225,0,0,1-3.94-1.47,5.579,5.579,0,0,1-1.421-4.048,6.121,6.121,0,0,1,1.318-4.16A4.554,4.554,0,0,1,38.213-11a4.451,4.451,0,0,1,3.379,1.3,4.963,4.963,0,0,1,1.24,3.574v1.24h-7.2a3.548,3.548,0,0,0,.85,2.417,2.959,2.959,0,0,0,2.256.845A8.328,8.328,0,0,0,40.522-1.8a9.342,9.342,0,0,0,1.772-.6V-.537a7.046,7.046,0,0,1-1.7.566A10.42,10.42,0,0,1,38.633.2Zm-.42-9.453a2.306,2.306,0,0,0-1.753.693,3.3,3.3,0,0,0-.786,2.021h4.9a2.99,2.99,0,0,0-.645-2.026A2.2,2.2,0,0,0,38.213-9.258Zm22,3.838a5.9,5.9,0,0,1-1.357,4.131A4.864,4.864,0,0,1,55.078.2,5.178,5.178,0,0,1,52.4-.488a4.513,4.513,0,0,1-1.787-1.963A6.685,6.685,0,0,1,49.99-5.42a5.855,5.855,0,0,1,1.348-4.1A4.886,4.886,0,0,1,55.137-11a4.758,4.758,0,0,1,3.711,1.509A5.828,5.828,0,0,1,60.215-5.42Zm-7.861,0q0,3.74,2.764,3.74,2.734,0,2.734-3.74,0-3.7-2.754-3.7A2.348,2.348,0,0,0,53-8.164,4.87,4.87,0,0,0,52.354-5.42ZM68.271-9.062H65.635V0h-2.3V-9.062H61.553v-1.074l1.777-.7v-.7a3.93,3.93,0,0,1,.9-2.837,3.673,3.673,0,0,1,2.744-.923,7.323,7.323,0,0,1,2.383.4l-.605,1.738a5.291,5.291,0,0,0-1.621-.273,1.319,1.319,0,0,0-1.138.483,2.436,2.436,0,0,0-.356,1.45v.7h2.637ZM-25.557,16a5.524,5.524,0,0,1,1.143.1l-.225,2.139a4.337,4.337,0,0,0-1.016-.117,2.939,2.939,0,0,0-2.231.9,3.247,3.247,0,0,0-.854,2.334V27h-2.295V16.2h1.8l.3,1.9h.117a4.279,4.279,0,0,1,1.4-1.533A3.331,3.331,0,0,1-25.557,16ZM-18.1,27.2a5.225,5.225,0,0,1-3.94-1.47,5.579,5.579,0,0,1-1.421-4.048,6.121,6.121,0,0,1,1.318-4.16A4.554,4.554,0,0,1-18.516,16a4.451,4.451,0,0,1,3.379,1.3,4.963,4.963,0,0,1,1.24,3.574v1.24h-7.2a3.548,3.548,0,0,0,.85,2.417,2.959,2.959,0,0,0,2.256.845,8.328,8.328,0,0,0,1.782-.181,9.342,9.342,0,0,0,1.772-.6v1.865a7.046,7.046,0,0,1-1.7.566A10.419,10.419,0,0,1-18.1,27.2Zm-.42-9.453a2.306,2.306,0,0,0-1.753.693,3.3,3.3,0,0,0-.786,2.021h4.9a2.99,2.99,0,0,0-.645-2.026A2.2,2.2,0,0,0-18.516,17.742Zm14.482,6.182a2.826,2.826,0,0,1-1.152,2.427,5.518,5.518,0,0,1-3.3.845,7.8,7.8,0,0,1-3.467-.654V24.559a8.511,8.511,0,0,0,3.545.879q2.119,0,2.119-1.279a1.013,1.013,0,0,0-.234-.684,2.774,2.774,0,0,0-.771-.566,13.276,13.276,0,0,0-1.494-.664A6.912,6.912,0,0,1-11.313,20.8a2.674,2.674,0,0,1-.659-1.875,2.463,2.463,0,0,1,1.118-2.153A5.306,5.306,0,0,1-7.812,16a8.616,8.616,0,0,1,3.6.771L-4.951,18.5a8.015,8.015,0,0,0-2.939-.723q-1.816,0-1.816,1.035a1.041,1.041,0,0,0,.474.859,10.416,10.416,0,0,0,2.065.967,9.441,9.441,0,0,1,1.943.947,2.831,2.831,0,0,1,.9.991A2.869,2.869,0,0,1-4.033,23.924ZM6.064,27l-.322-1.416H5.625a3.256,3.256,0,0,1-1.362,1.182,4.555,4.555,0,0,1-2.017.43,3.959,3.959,0,0,1-2.93-.977A4.048,4.048,0,0,1-1.65,23.26V16.2H.664v6.66a2.889,2.889,0,0,0,.508,1.86,1.939,1.939,0,0,0,1.592.62,2.534,2.534,0,0,0,2.124-.864,4.762,4.762,0,0,0,.679-2.9V16.2h2.3V27Zm7.373,0H11.143V11.8h2.295Zm7.3-1.66a5.581,5.581,0,0,0,1.68-.264V26.8a4.633,4.633,0,0,1-.981.278A6.762,6.762,0,0,1,20.2,27.2q-3.262,0-3.262-3.437v-5.82H15.459V16.922l1.582-.84.781-2.285h1.416v2.4h3.076v1.738H19.238v5.781a1.622,1.622,0,0,0,.415,1.226A1.513,1.513,0,0,0,20.742,25.34Zm11.094-1.416a2.826,2.826,0,0,1-1.152,2.427,5.518,5.518,0,0,1-3.3.845,7.8,7.8,0,0,1-3.467-.654V24.559a8.511,8.511,0,0,0,3.545.879q2.119,0,2.119-1.279a1.013,1.013,0,0,0-.234-.684,2.774,2.774,0,0,0-.771-.566,13.276,13.276,0,0,0-1.494-.664A6.912,6.912,0,0,1,24.556,20.8a2.674,2.674,0,0,1-.659-1.875,2.463,2.463,0,0,1,1.118-2.153A5.306,5.306,0,0,1,28.057,16a8.616,8.616,0,0,1,3.6.771L30.918,18.5a8.015,8.015,0,0,0-2.939-.723q-1.816,0-1.816,1.035a1.041,1.041,0,0,0,.474.859,10.416,10.416,0,0,0,2.065.967,9.441,9.441,0,0,1,1.943.947,2.831,2.831,0,0,1,.9.991A2.869,2.869,0,0,1,31.836,23.924Z" transform="translate(855 347)" fill="#051c2c"></path></g><path id="Path_30" data-name="Path 30" d="M-92.822,0l-4.141-11.924h-.078q.166,2.656.166,4.98V0h-2.119V-14.277H-95.7L-91.738-2.92h.059L-87.6-14.277h3.3V0h-2.246V-7.061q0-1.064.054-2.773t.093-2.07h-.078L-90.762,0Zm19.658,0-.322-1.416H-73.6A3.256,3.256,0,0,1-74.966-.234,4.555,4.555,0,0,1-76.982.2a3.959,3.959,0,0,1-2.93-.977,4.048,4.048,0,0,1-.967-2.959V-10.8h2.314v6.66a2.889,2.889,0,0,0,.508,1.86,1.939,1.939,0,0,0,1.592.62,2.534,2.534,0,0,0,2.124-.864,4.762,4.762,0,0,0,.679-2.9V-10.8h2.3V0Zm7.373,0h-2.295V-15.2h2.295Zm7.3-1.66a5.581,5.581,0,0,0,1.68-.264V-.2a4.633,4.633,0,0,1-.981.278A6.762,6.762,0,0,1-59.033.2q-3.262,0-3.262-3.437v-5.82H-63.77v-1.016l1.582-.84.781-2.285h1.416v2.4h3.076v1.738H-59.99v5.781a1.622,1.622,0,0,0,.415,1.226A1.513,1.513,0,0,0-58.486-1.66ZM-52.354,0h-2.295V-10.8h2.295Zm-2.432-13.662a1.271,1.271,0,0,1,.337-.947,1.313,1.313,0,0,1,.962-.332,1.285,1.285,0,0,1,.942.332,1.271,1.271,0,0,1,.337.947,1.247,1.247,0,0,1-.337.923,1.274,1.274,0,0,1-.942.337,1.3,1.3,0,0,1-.962-.337A1.247,1.247,0,0,1-54.785-13.662ZM-39.971,0h-2.3V-6.66a3.02,3.02,0,0,0-.469-1.851,1.73,1.73,0,0,0-1.465-.61,2.234,2.234,0,0,0-1.948.864,5.071,5.071,0,0,0-.62,2.876V0h-2.295V-10.8h1.8l.322,1.416h.117a2.992,2.992,0,0,1,1.3-1.191,4.2,4.2,0,0,1,1.88-.42q2.49,0,3.3,1.7h.156a3.293,3.293,0,0,1,1.348-1.25A4.277,4.277,0,0,1-36.855-11a3.628,3.628,0,0,1,2.817.977,4.325,4.325,0,0,1,.884,2.979V0h-2.295V-6.66a3,3,0,0,0-.474-1.851,1.744,1.744,0,0,0-1.47-.61,2.278,2.278,0,0,0-1.958.835,4.3,4.3,0,0,0-.62,2.563Zm19.6-5.42a5.9,5.9,0,0,1-1.357,4.131A4.864,4.864,0,0,1-25.508.2a5.178,5.178,0,0,1-2.676-.684,4.513,4.513,0,0,1-1.787-1.963A6.685,6.685,0,0,1-30.6-5.42a5.855,5.855,0,0,1,1.348-4.1A4.886,4.886,0,0,1-25.449-11a4.758,4.758,0,0,1,3.711,1.509A5.828,5.828,0,0,1-20.371-5.42Zm-7.861,0q0,3.74,2.764,3.74,2.734,0,2.734-3.74,0-3.7-2.754-3.7a2.348,2.348,0,0,0-2.095.957A4.87,4.87,0,0,0-28.232-5.42ZM-14.092.2A3.762,3.762,0,0,1-17.246-1.27a6.584,6.584,0,0,1-1.133-4.111,6.605,6.605,0,0,1,1.147-4.136A3.8,3.8,0,0,1-14.053-11a3.723,3.723,0,0,1,3.242,1.572h.117a13.757,13.757,0,0,1-.166-1.836V-15.2h2.3V0h-1.8l-.4-1.416h-.107A3.669,3.669,0,0,1-14.092.2Zm.615-1.855a2.5,2.5,0,0,0,2.061-.8,4.19,4.19,0,0,0,.664-2.583v-.322a4.841,4.841,0,0,0-.664-2.9,2.463,2.463,0,0,0-2.08-.859,2.11,2.11,0,0,0-1.865.981,5.03,5.03,0,0,0-.654,2.8A4.9,4.9,0,0,0-15.381-2.6,2.143,2.143,0,0,0-13.477-1.66ZM1.484,0,1.025-1.5H.947A4.425,4.425,0,0,1-.625-.161,4.972,4.972,0,0,1-2.656.2,3.438,3.438,0,0,1-5.142-.664,3.216,3.216,0,0,1-6.035-3.1a2.855,2.855,0,0,1,1.24-2.52,7.151,7.151,0,0,1,3.779-.928L.85-6.6v-.576A2.184,2.184,0,0,0,.366-8.726a1.971,1.971,0,0,0-1.5-.513,5.183,5.183,0,0,0-1.592.244,12.012,12.012,0,0,0-1.465.576l-.742-1.641a7.987,7.987,0,0,1,1.924-.7A8.853,8.853,0,0,1-1.035-11a4.672,4.672,0,0,1,3.11.9,3.518,3.518,0,0,1,1.05,2.822V0ZM-1.934-1.562a2.843,2.843,0,0,0,2.007-.7A2.531,2.531,0,0,0,.83-4.219v-.937L-.557-5.1a4.745,4.745,0,0,0-2.358.542,1.647,1.647,0,0,0-.737,1.479,1.444,1.444,0,0,0,.43,1.118A1.846,1.846,0,0,0-1.934-1.562ZM8.623,0H6.328V-15.2H8.623ZM26.2,0,24.775-3.965H19.316L17.92,0H15.459L20.8-14.336H23.34L28.682,0ZM24.16-5.977,22.822-9.863q-.146-.391-.405-1.23t-.356-1.23A21.886,21.886,0,0,1,21.289-9.7L20-5.977ZM30.566,0V-14.277H32.9V0ZM50.723,0h-2.3V-6.66a3.02,3.02,0,0,0-.469-1.851,1.73,1.73,0,0,0-1.465-.61,2.234,2.234,0,0,0-1.948.864,5.071,5.071,0,0,0-.62,2.876V0H41.621V-10.8h1.8l.322,1.416h.117a2.992,2.992,0,0,1,1.3-1.191,4.2,4.2,0,0,1,1.88-.42q2.49,0,3.3,1.7H50.5a3.293,3.293,0,0,1,1.348-1.25A4.277,4.277,0,0,1,53.838-11a3.628,3.628,0,0,1,2.817.977,4.325,4.325,0,0,1,.884,2.979V0H55.244V-6.66a3,3,0,0,0-.474-1.851,1.744,1.744,0,0,0-1.47-.61,2.278,2.278,0,0,0-1.958.835,4.3,4.3,0,0,0-.62,2.563Zm19.6-5.42a5.9,5.9,0,0,1-1.357,4.131A4.864,4.864,0,0,1,65.186.2,5.178,5.178,0,0,1,62.51-.488a4.513,4.513,0,0,1-1.787-1.963A6.685,6.685,0,0,1,60.1-5.42a5.855,5.855,0,0,1,1.348-4.1A4.886,4.886,0,0,1,65.244-11a4.758,4.758,0,0,1,3.711,1.509A5.828,5.828,0,0,1,70.322-5.42Zm-7.861,0q0,3.74,2.764,3.74,2.734,0,2.734-3.74,0-3.7-2.754-3.7a2.348,2.348,0,0,0-2.095.957A4.87,4.87,0,0,0,62.461-5.42ZM76.6.2A3.762,3.762,0,0,1,73.447-1.27a6.584,6.584,0,0,1-1.133-4.111,6.605,6.605,0,0,1,1.147-4.136A3.8,3.8,0,0,1,76.641-11a3.723,3.723,0,0,1,3.242,1.572H80a13.756,13.756,0,0,1-.166-1.836V-15.2h2.3V0h-1.8l-.4-1.416h-.107A3.669,3.669,0,0,1,76.6.2Zm.615-1.855a2.5,2.5,0,0,0,2.061-.8,4.19,4.19,0,0,0,.664-2.583v-.322a4.841,4.841,0,0,0-.664-2.9,2.463,2.463,0,0,0-2.08-.859,2.11,2.11,0,0,0-1.865.981,5.03,5.03,0,0,0-.654,2.8A4.9,4.9,0,0,0,75.313-2.6,2.143,2.143,0,0,0,77.217-1.66ZM90.137.2a5.225,5.225,0,0,1-3.94-1.47,5.579,5.579,0,0,1-1.421-4.048,6.121,6.121,0,0,1,1.318-4.16A4.554,4.554,0,0,1,89.717-11,4.451,4.451,0,0,1,93.1-9.7a4.963,4.963,0,0,1,1.24,3.574v1.24h-7.2a3.548,3.548,0,0,0,.85,2.417,2.959,2.959,0,0,0,2.256.845A8.328,8.328,0,0,0,92.026-1.8,9.342,9.342,0,0,0,93.8-2.4V-.537a7.046,7.046,0,0,1-1.7.566A10.419,10.419,0,0,1,90.137.2Zm-.42-9.453a2.306,2.306,0,0,0-1.753.693,3.3,3.3,0,0,0-.786,2.021h4.9a2.99,2.99,0,0,0-.645-2.026A2.2,2.2,0,0,0,89.717-9.258ZM99.238,0H96.943V-15.2h2.295Z" transform="translate(138 295)" fill="#051c2c"></path><g id="Group_26" data-name="Group 26" transform="translate(17 -51)"><path id="Path_9" data-name="Path 9" d="M1730,200h158" transform="translate(-1460 -0.5)" fill="#051c2c" stroke="#051c2c" stroke-width="2"></path><path id="Polygon_2" data-name="Polygon 2" d="M5.5,0,11,10H0Z" transform="translate(433 194) rotate(90)" fill="#051c2c"></path></g><g id="Group_28" data-name="Group 28" transform="translate(17 261)"><path id="Path_9-2" data-name="Path 9" d="M1730,200h278.3" transform="translate(-1580.296 -0.5)" fill="#051c2c" stroke="#051c2c" stroke-width="2"></path><path id="Polygon_2-2" data-name="Polygon 2" d="M5.5,0,11,10H0Z" transform="translate(433 194) rotate(90)" fill="#051c2c"></path></g><g id="Group_27" data-name="Group 27" transform="translate(346 -51)"><path id="Path_9-3" data-name="Path 9" d="M1730,200h158" transform="translate(-1460 -0.5)" fill="#051c2c" stroke="#051c2c" stroke-width="2"></path><path id="Polygon_2-3" data-name="Polygon 2" d="M5.5,0,11,10H0Z" transform="translate(433 194) rotate(90)" fill="#051c2c"></path></g><g id="Group_29" data-name="Group 29" transform="translate(346 261)"><path id="Path_9-4" data-name="Path 9" d="M1730,200h158" transform="translate(-1460 -0.5)" fill="#051c2c" stroke="#051c2c" stroke-width="2"></path><path id="Polygon_2-4" data-name="Polygon 2" d="M5.5,0,11,10H0Z" transform="translate(433 194) rotate(90)" fill="#051c2c"></path></g><g id="Group_24" data-name="Group 24" transform="translate(17 -51)"><g id="Rectangle_26" data-name="Rectangle 26" transform="translate(433 148)" fill="#fff" stroke="#1b54f8" stroke-width="1"><rect width="185" height="104" rx="4" stroke="none"></rect><rect x="0.5" y="0.5" width="184" height="103" rx="3.5" fill="none"></rect></g><path id="Path_28" data-name="Path 28" d="M-31.968,0l-1.426-3.965h-5.459L-40.249,0H-42.71l5.342-14.336h2.539L-29.487,0Zm-2.041-5.977-1.338-3.887q-.146-.391-.405-1.23t-.356-1.23A21.886,21.886,0,0,1-36.88-9.7l-1.289,3.721ZM-27.6,0V-14.277h2.334V0ZM-7.446,0h-2.3V-6.66a3.02,3.02,0,0,0-.469-1.851,1.73,1.73,0,0,0-1.465-.61,2.234,2.234,0,0,0-1.948.864,5.071,5.071,0,0,0-.62,2.876V0h-2.295V-10.8h1.8l.322,1.416h.117a2.992,2.992,0,0,1,1.3-1.191,4.2,4.2,0,0,1,1.88-.42q2.49,0,3.3,1.7h.156a3.293,3.293,0,0,1,1.348-1.25A4.277,4.277,0,0,1-4.331-11a3.628,3.628,0,0,1,2.817.977A4.325,4.325,0,0,1-.63-7.041V0H-2.925V-6.66A3,3,0,0,0-3.4-8.511a1.744,1.744,0,0,0-1.47-.61,2.278,2.278,0,0,0-1.958.835,4.3,4.3,0,0,0-.62,2.563Zm19.6-5.42A5.9,5.9,0,0,1,10.8-1.289,4.864,4.864,0,0,1,7.017.2,5.178,5.178,0,0,1,4.341-.488,4.513,4.513,0,0,1,2.554-2.451,6.685,6.685,0,0,1,1.929-5.42a5.855,5.855,0,0,1,1.348-4.1A4.886,4.886,0,0,1,7.075-11a4.758,4.758,0,0,1,3.711,1.509A5.828,5.828,0,0,1,12.153-5.42Zm-7.861,0q0,3.74,2.764,3.74,2.734,0,2.734-3.74,0-3.7-2.754-3.7a2.348,2.348,0,0,0-2.095.957A4.87,4.87,0,0,0,4.292-5.42ZM18.433.2A3.762,3.762,0,0,1,15.278-1.27a6.584,6.584,0,0,1-1.133-4.111,6.605,6.605,0,0,1,1.147-4.136A3.8,3.8,0,0,1,18.472-11a3.723,3.723,0,0,1,3.242,1.572h.117a13.757,13.757,0,0,1-.166-1.836V-15.2h2.3V0h-1.8l-.4-1.416h-.107A3.669,3.669,0,0,1,18.433.2Zm.615-1.855a2.5,2.5,0,0,0,2.061-.8,4.19,4.19,0,0,0,.664-2.583v-.322a4.841,4.841,0,0,0-.664-2.9,2.463,2.463,0,0,0-2.08-.859,2.11,2.11,0,0,0-1.865.981,5.03,5.03,0,0,0-.654,2.8A4.9,4.9,0,0,0,17.144-2.6,2.143,2.143,0,0,0,19.048-1.66ZM31.968.2a5.225,5.225,0,0,1-3.94-1.47,5.579,5.579,0,0,1-1.421-4.048,6.121,6.121,0,0,1,1.318-4.16A4.554,4.554,0,0,1,31.548-11a4.451,4.451,0,0,1,3.379,1.3,4.963,4.963,0,0,1,1.24,3.574v1.24h-7.2a3.548,3.548,0,0,0,.85,2.417,2.959,2.959,0,0,0,2.256.845A8.328,8.328,0,0,0,33.857-1.8a9.342,9.342,0,0,0,1.772-.6V-.537a7.046,7.046,0,0,1-1.7.566A10.42,10.42,0,0,1,31.968.2Zm-.42-9.453a2.306,2.306,0,0,0-1.753.693,3.3,3.3,0,0,0-.786,2.021h4.9a2.99,2.99,0,0,0-.645-2.026A2.2,2.2,0,0,0,31.548-9.258ZM41.069,0H38.774V-15.2h2.295Z" transform="translate(526 208)" fill="#051c2c"></path></g><g id="Group_23" data-name="Group 23" transform="translate(17 -18)"><g id="Rectangle_28" data-name="Rectangle 28" transform="translate(433 426)" fill="#fff" stroke="#1b54f8" stroke-width="1"><rect width="185" height="104" rx="4" stroke="none"></rect><rect x="0.5" y="0.5" width="184" height="103" rx="3.5" fill="none"></rect></g><path id="Path_31" data-name="Path 31" d="M-31.968,0l-1.426-3.965h-5.459L-40.249,0H-42.71l5.342-14.336h2.539L-29.487,0Zm-2.041-5.977-1.338-3.887q-.146-.391-.405-1.23t-.356-1.23A21.886,21.886,0,0,1-36.88-9.7l-1.289,3.721ZM-27.6,0V-14.277h2.334V0ZM-7.446,0h-2.3V-6.66a3.02,3.02,0,0,0-.469-1.851,1.73,1.73,0,0,0-1.465-.61,2.234,2.234,0,0,0-1.948.864,5.071,5.071,0,0,0-.62,2.876V0h-2.295V-10.8h1.8l.322,1.416h.117a2.992,2.992,0,0,1,1.3-1.191,4.2,4.2,0,0,1,1.88-.42q2.49,0,3.3,1.7h.156a3.293,3.293,0,0,1,1.348-1.25A4.277,4.277,0,0,1-4.331-11a3.628,3.628,0,0,1,2.817.977A4.325,4.325,0,0,1-.63-7.041V0H-2.925V-6.66A3,3,0,0,0-3.4-8.511a1.744,1.744,0,0,0-1.47-.61,2.278,2.278,0,0,0-1.958.835,4.3,4.3,0,0,0-.62,2.563Zm19.6-5.42A5.9,5.9,0,0,1,10.8-1.289,4.864,4.864,0,0,1,7.017.2,5.178,5.178,0,0,1,4.341-.488,4.513,4.513,0,0,1,2.554-2.451,6.685,6.685,0,0,1,1.929-5.42a5.855,5.855,0,0,1,1.348-4.1A4.886,4.886,0,0,1,7.075-11a4.758,4.758,0,0,1,3.711,1.509A5.828,5.828,0,0,1,12.153-5.42Zm-7.861,0q0,3.74,2.764,3.74,2.734,0,2.734-3.74,0-3.7-2.754-3.7a2.348,2.348,0,0,0-2.095.957A4.87,4.87,0,0,0,4.292-5.42ZM18.433.2A3.762,3.762,0,0,1,15.278-1.27a6.584,6.584,0,0,1-1.133-4.111,6.605,6.605,0,0,1,1.147-4.136A3.8,3.8,0,0,1,18.472-11a3.723,3.723,0,0,1,3.242,1.572h.117a13.757,13.757,0,0,1-.166-1.836V-15.2h2.3V0h-1.8l-.4-1.416h-.107A3.669,3.669,0,0,1,18.433.2Zm.615-1.855a2.5,2.5,0,0,0,2.061-.8,4.19,4.19,0,0,0,.664-2.583v-.322a4.841,4.841,0,0,0-.664-2.9,2.463,2.463,0,0,0-2.08-.859,2.11,2.11,0,0,0-1.865.981,5.03,5.03,0,0,0-.654,2.8A4.9,4.9,0,0,0,17.144-2.6,2.143,2.143,0,0,0,19.048-1.66ZM31.968.2a5.225,5.225,0,0,1-3.94-1.47,5.579,5.579,0,0,1-1.421-4.048,6.121,6.121,0,0,1,1.318-4.16A4.554,4.554,0,0,1,31.548-11a4.451,4.451,0,0,1,3.379,1.3,4.963,4.963,0,0,1,1.24,3.574v1.24h-7.2a3.548,3.548,0,0,0,.85,2.417,2.959,2.959,0,0,0,2.256.845A8.328,8.328,0,0,0,33.857-1.8a9.342,9.342,0,0,0,1.772-.6V-.537a7.046,7.046,0,0,1-1.7.566A10.42,10.42,0,0,1,31.968.2Zm-.42-9.453a2.306,2.306,0,0,0-1.753.693,3.3,3.3,0,0,0-.786,2.021h4.9a2.99,2.99,0,0,0-.645-2.026A2.2,2.2,0,0,0,31.548-9.258ZM41.069,0H38.774V-15.2h2.295Z" transform="translate(526 486)" fill="#051c2c"></path></g><path id="Path_10" data-name="Path 10" d="M1795,382.5h8.84V569.458H1795" transform="translate(-1443 -18)" fill="none" stroke="#051c2c" stroke-width="2"></path><path id="Path_33" data-name="Path 33" d="M12.08-4.121,11.787,0H.957V-.693q.234-.02.679-.068a2.337,2.337,0,0,0,.62-.127.842.842,0,0,0,.425-.371,1.308,1.308,0,0,0,.132-.625v-9.922a1.436,1.436,0,0,0-.112-.586.851.851,0,0,0-.444-.41,3.338,3.338,0,0,0-.63-.229,3.612,3.612,0,0,0-.669-.132v-.693h5.85v.693a4.554,4.554,0,0,0-.708.1,5.272,5.272,0,0,0-.63.156.728.728,0,0,0-.454.4,1.513,1.513,0,0,0-.122.605V-2.6a6.053,6.053,0,0,0,.063,1,.893.893,0,0,0,.3.552,1.344,1.344,0,0,0,.669.229,11.034,11.034,0,0,0,1.245.054q.361,0,.752-.02a6.487,6.487,0,0,0,.742-.078,3.785,3.785,0,0,0,.63-.161,1,1,0,0,0,.425-.259,8.742,8.742,0,0,0,.933-1.362,9.718,9.718,0,0,0,.737-1.479Zm9.248,1.855A4.931,4.931,0,0,1,19.707-.43a4.081,4.081,0,0,1-2.334.684,4.746,4.746,0,0,1-2.036-.41A4,4,0,0,1,13.9-1.27a4.728,4.728,0,0,1-.845-1.641,6.931,6.931,0,0,1-.278-1.982,5.843,5.843,0,0,1,.3-1.841,5.194,5.194,0,0,1,.874-1.626,4.23,4.23,0,0,1,1.382-1.118A3.983,3.983,0,0,1,17.178-9.9a4.454,4.454,0,0,1,1.807.332,3.215,3.215,0,0,1,1.221.908,3.626,3.626,0,0,1,.669,1.289,5.655,5.655,0,0,1,.22,1.611v.645H14.717A7.55,7.55,0,0,0,14.9-3.4a4.114,4.114,0,0,0,.571,1.357,2.718,2.718,0,0,0,1,.894A3.079,3.079,0,0,0,17.93-.82a2.71,2.71,0,0,0,1.5-.405,4.013,4.013,0,0,0,1.216-1.46ZM19.17-5.937a8,8,0,0,0-.093-1.172,3.594,3.594,0,0,0-.3-1.045,1.985,1.985,0,0,0-.615-.732,1.672,1.672,0,0,0-1.006-.283,2.091,2.091,0,0,0-1.7.854,3.989,3.989,0,0,0-.737,2.378ZM31-2.266A4.931,4.931,0,0,1,29.375-.43a4.081,4.081,0,0,1-2.334.684A4.746,4.746,0,0,1,25-.156a4,4,0,0,1-1.44-1.113A4.728,4.728,0,0,1,22.72-2.91a6.931,6.931,0,0,1-.278-1.982,5.843,5.843,0,0,1,.3-1.841,5.194,5.194,0,0,1,.874-1.626A4.23,4.23,0,0,1,25-9.478,3.983,3.983,0,0,1,26.846-9.9a4.454,4.454,0,0,1,1.807.332,3.215,3.215,0,0,1,1.221.908,3.626,3.626,0,0,1,.669,1.289,5.655,5.655,0,0,1,.22,1.611v.645H24.385A7.55,7.55,0,0,0,24.565-3.4a4.114,4.114,0,0,0,.571,1.357,2.718,2.718,0,0,0,1,.894A3.079,3.079,0,0,0,27.6-.82a2.71,2.71,0,0,0,1.5-.405,4.013,4.013,0,0,0,1.216-1.46ZM28.838-5.937a8,8,0,0,0-.093-1.172,3.594,3.594,0,0,0-.3-1.045,1.985,1.985,0,0,0-.615-.732,1.672,1.672,0,0,0-1.006-.283,2.091,2.091,0,0,0-1.7.854,3.989,3.989,0,0,0-.737,2.378ZM46.455-9a2.028,2.028,0,0,0-.884.342,1.715,1.715,0,0,0-.688.908q-.488,1.436-.923,2.72t-.972,2.886q-.176.508-.356,1.094T42.3.068h-.84l-2.588-7.09L36.27.068h-.8q-.732-2.168-1.431-4.3T32.8-7.949a1.322,1.322,0,0,0-.6-.723,2.157,2.157,0,0,0-.85-.312v-.645h4.3v.684a3.174,3.174,0,0,0-.7.107q-.376.1-.376.322a.846.846,0,0,0,.034.166q.034.127.083.273.312,1.025.708,2.29T36.426-2.5l2.461-6.934h.938L42.334-2.6q.42-1.309.835-2.534t.728-2.3q.068-.254.132-.464a1.429,1.429,0,0,0,.063-.415.407.407,0,0,0-.156-.312,1.281,1.281,0,0,0-.381-.225,2.082,2.082,0,0,0-.425-.117A2.248,2.248,0,0,0,42.793-9v-.625h3.662ZM55.977-.176q-.459.166-.806.269a2.772,2.772,0,0,1-.786.1,1.916,1.916,0,0,1-1.216-.356,1.646,1.646,0,0,1-.581-1.04h-.059A4.763,4.763,0,0,1,51.167-.127a3.819,3.819,0,0,1-1.753.371A2.481,2.481,0,0,1,47.632-.42a2.289,2.289,0,0,1-.7-1.738,2.962,2.962,0,0,1,.156-1,2.381,2.381,0,0,1,.469-.791,2.343,2.343,0,0,1,.645-.522,5.632,5.632,0,0,1,.752-.366q.439-.166,1.782-.615a13.359,13.359,0,0,0,1.812-.7v-.967a4.093,4.093,0,0,0-.054-.488,2.045,2.045,0,0,0-.229-.684,1.945,1.945,0,0,0-.552-.63A1.652,1.652,0,0,0,50.7-9.189a2.266,2.266,0,0,0-.835.151,1.515,1.515,0,0,0-.542.317,2.672,2.672,0,0,0,.093.576,2.986,2.986,0,0,1,.093.7.839.839,0,0,1-.308.625,1.214,1.214,0,0,1-.854.283.8.8,0,0,1-.718-.347,1.376,1.376,0,0,1-.229-.776,1.385,1.385,0,0,1,.317-.859,3.187,3.187,0,0,1,.825-.732,4.491,4.491,0,0,1,1.064-.464A4.177,4.177,0,0,1,50.83-9.9a8,8,0,0,1,1.431.112,2.627,2.627,0,0,1,1.108.483,2.252,2.252,0,0,1,.757.981,4.188,4.188,0,0,1,.259,1.6q0,1.4-.029,2.476t-.029,2.358a1.193,1.193,0,0,0,.132.605,1.069,1.069,0,0,0,.405.381,1,1,0,0,0,.464.1q.317.01.649.01ZM52.568-5.332q-.83.244-1.455.479a5.89,5.89,0,0,0-1.162.586,2.643,2.643,0,0,0-.771.786A2,2,0,0,0,48.9-2.4a1.523,1.523,0,0,0,.425,1.191A1.556,1.556,0,0,0,50.4-.83a2.218,2.218,0,0,0,1.221-.337,3.552,3.552,0,0,0,.889-.8ZM56.2,3.145a1.166,1.166,0,0,1,.269-.8.852.852,0,0,1,.669-.308,1.147,1.147,0,0,1,.537.117,1.511,1.511,0,0,1,.4.3,2.528,2.528,0,0,1,.313.4q.166.254.264.42A3.9,3.9,0,0,0,59.819,1.9,11.134,11.134,0,0,0,60.8-.049q-.928-2.314-1.68-4.141T57.549-7.969a1.4,1.4,0,0,0-.625-.7,2.588,2.588,0,0,0-.879-.317v-.645h4.395v.684a3.127,3.127,0,0,0-.7.122q-.41.112-.41.259a.747.747,0,0,0,.044.2q.044.137.1.283.371.967,1.133,2.788t1.182,2.915q.439-1.045.913-2.163t1.06-2.642q.068-.186.2-.513a1.6,1.6,0,0,0,.127-.562q0-.254-.444-.474A2.638,2.638,0,0,0,62.793-9v-.625h3.574v.605a2.4,2.4,0,0,0-.771.337,1.761,1.761,0,0,0-.713.815q-1.162,2.7-2.065,4.912T61.445.3a18,18,0,0,1-1.1,2.134A6.4,6.4,0,0,1,59.4,3.643a2.744,2.744,0,0,1-.815.552,2.081,2.081,0,0,1-.757.142,1.816,1.816,0,0,1-1.2-.361A1.061,1.061,0,0,1,56.2,3.145ZM81.377,0H75.625V-.693L76.3-.752a2.041,2.041,0,0,0,.61-.117.828.828,0,0,0,.43-.356,1.241,1.241,0,0,0,.137-.62V-6.777H70.967v4.824a1.327,1.327,0,0,0,.112.576.967.967,0,0,0,.444.41,2.48,2.48,0,0,0,.591.176,4.381,4.381,0,0,0,.669.1V0H67.031V-.693l.679-.059a2.041,2.041,0,0,0,.61-.117.828.828,0,0,0,.43-.356,1.241,1.241,0,0,0,.137-.62v-10a1.279,1.279,0,0,0-.127-.571.882.882,0,0,0-.439-.405,3.534,3.534,0,0,0-.64-.225,3.69,3.69,0,0,0-.649-.117v-.693h5.752v.693a4.354,4.354,0,0,0-.669.088,4.668,4.668,0,0,0-.591.146.7.7,0,0,0-.444.391,1.553,1.553,0,0,0-.112.6v4.3H77.48v-4.2a1.279,1.279,0,0,0-.127-.571.882.882,0,0,0-.439-.405,3.534,3.534,0,0,0-.64-.225,3.69,3.69,0,0,0-.649-.117v-.693h5.752v.693a4.354,4.354,0,0,0-.669.088,4.668,4.668,0,0,0-.591.146.7.7,0,0,0-.444.391,1.553,1.553,0,0,0-.112.6v9.99a1.327,1.327,0,0,0,.112.576.967.967,0,0,0,.444.41,2.48,2.48,0,0,0,.591.176,4.381,4.381,0,0,0,.669.1ZM91.631-2.266A4.931,4.931,0,0,1,90.01-.43a4.081,4.081,0,0,1-2.334.684,4.746,4.746,0,0,1-2.036-.41A4,4,0,0,1,84.2-1.27a4.728,4.728,0,0,1-.845-1.641,6.931,6.931,0,0,1-.278-1.982,5.843,5.843,0,0,1,.3-1.841,5.194,5.194,0,0,1,.874-1.626A4.23,4.23,0,0,1,85.63-9.478,3.983,3.983,0,0,1,87.48-9.9a4.454,4.454,0,0,1,1.807.332,3.215,3.215,0,0,1,1.221.908,3.626,3.626,0,0,1,.669,1.289,5.655,5.655,0,0,1,.22,1.611v.645H85.02A7.55,7.55,0,0,0,85.2-3.4a4.114,4.114,0,0,0,.571,1.357,2.718,2.718,0,0,0,1,.894,3.079,3.079,0,0,0,1.465.327,2.71,2.71,0,0,0,1.5-.405,4.013,4.013,0,0,0,1.216-1.46ZM89.473-5.937a8,8,0,0,0-.093-1.172,3.594,3.594,0,0,0-.3-1.045,1.985,1.985,0,0,0-.615-.732,1.672,1.672,0,0,0-1.006-.283,2.091,2.091,0,0,0-1.7.854,3.988,3.988,0,0,0-.737,2.378Zm10.645-2.451a1.617,1.617,0,0,1-.244.884.828.828,0,0,1-.752.386,1.142,1.142,0,0,1-.835-.283A.862.862,0,0,1,98-8.027a2.053,2.053,0,0,1,.034-.391q.034-.176.063-.352a2.163,2.163,0,0,0-1.074.371,3.174,3.174,0,0,0-1.045,1.055v5.605a1.052,1.052,0,0,0,.132.557.8.8,0,0,0,.415.322,2.611,2.611,0,0,0,.63.146q.386.049.669.068V0H92.744V-.645l.464-.039a1.778,1.778,0,0,0,.415-.078.7.7,0,0,0,.405-.308,1.1,1.1,0,0,0,.132-.571V-7.588a1.356,1.356,0,0,0-.142-.6,1.185,1.185,0,0,0-.4-.469,1.332,1.332,0,0,0-.439-.171,3.9,3.9,0,0,0-.547-.073v-.635l3.2-.215.137.137v1.357h.049a4.382,4.382,0,0,1,1.348-1.2,2.85,2.85,0,0,1,1.357-.41,1.328,1.328,0,0,1,1,.4A1.483,1.483,0,0,1,100.117-8.389ZM106.885-.42q-.635.264-1.2.444A4.609,4.609,0,0,1,104.3.205a2.078,2.078,0,0,1-1.7-.61,2.677,2.677,0,0,1-.493-1.724V-8.652h-1.738V-9.59h1.777v-3h1.777v3h2.764v.938h-2.744v5.381a9.643,9.643,0,0,0,.044,1.011,1.88,1.88,0,0,0,.21.708,1,1,0,0,0,.469.43,2,2,0,0,0,.84.146q.244,0,.718-.044a3.158,3.158,0,0,0,.669-.112Zm8.584.42h-7.793V-.518l5.449-8.32h-1.348q-.85,0-1.328.029a2.712,2.712,0,0,0-.879.2,1.136,1.136,0,0,0-.513.615,6.251,6.251,0,0,0-.415,1.328h-.6V-9.629h7.363v.4L109.873-.791q.352.01.771.015t.908,0q.391,0,.815-.01t1.089-.049a.773.773,0,0,0,.591-.264,1.784,1.784,0,0,0,.308-.557q.107-.283.259-.781t.269-.967h.586Z" transform="translate(834 596)" fill="#051c2c"></path><g id="Group_47" data-name="Group 47" transform="translate(0 -17)"><rect id="Rectangle_25" data-name="Rectangle 25" width="185" height="104" transform="translate(102 85)" fill="#5c9bfc"></rect><rect id="Rectangle_24" data-name="Rectangle 24" width="185" height="104" transform="translate(89 98)" fill="#b3d0fc"></rect><rect id="Rectangle_23" data-name="Rectangle 23" width="185" height="104" transform="translate(78 114)" fill="#e6f0ff"></rect><g id="Mask_Group_1" data-name="Mask Group 1" transform="translate(-1577 316)" clip-path="url(#clip-path)"><g id="noun-image-5633850" transform="translate(1713 -185)"><path id="Path_14" data-name="Path 14" d="M182.591,120.182a7.591,7.591,0,1,1,7.591-7.591A7.456,7.456,0,0,1,182.591,120.182Zm0-10.121a2.53,2.53,0,1,0,2.53,2.53A2.391,2.391,0,0,0,182.591,110.061Z" transform="translate(-164.879 -94.879)" fill="#1b54f8" stroke="#e6f0ff" stroke-width="3"></path><path id="Path_15" data-name="Path 15" d="M165.728,35H115.121A10.151,10.151,0,0,0,105,45.121V95.728a10.151,10.151,0,0,0,10.121,10.121h50.607A10.151,10.151,0,0,0,175.85,95.728V45.121A10.151,10.151,0,0,0,165.728,35Zm-50.607,5.061h50.607a5.076,5.076,0,0,1,5.061,5.061V79.534l-12.4-12.4a7.337,7.337,0,0,0-10.627,0L135.111,79.787l-5.061-3.8a7.978,7.978,0,0,0-9.615.253L110.061,85.1V45.121A5.076,5.076,0,0,1,115.121,40.061Zm50.607,60.728H115.121a5.076,5.076,0,0,1-5.061-5.061v-3.8L123.725,80.04a2.3,2.3,0,0,1,3.036,0l5.061,3.8a5.017,5.017,0,0,0,6.579-.506l12.652-12.652a2.446,2.446,0,0,1,3.542,0l15.941,15.941v9.109A4.716,4.716,0,0,1,165.728,100.789Z" transform="translate(-105 -35)" fill="#1b54f8" stroke="#e6f0ff" stroke-width="3"></path></g></g></g><g id="Group_49" data-name="Group 49" transform="translate(0 14)"><rect id="Rectangle_32" data-name="Rectangle 32" width="130" height="71" transform="translate(222 309)" fill="#5c9bfc"></rect><rect id="Rectangle_30" data-name="Rectangle 30" width="130" height="72" transform="translate(213 317)" fill="#b3d0fc"></rect><rect id="Rectangle_31" data-name="Rectangle 31" width="129" height="73" transform="translate(205 328)" fill="#e6f0ff"></rect><g id="Mask_Group_4" data-name="Mask Group 4" transform="translate(-1470 521)" clip-path="url(#clip-path-2)"><g id="noun-image-5633850-2" data-name="noun-image-5633850" transform="translate(1712.046 -185.954)"><path id="Path_25" data-name="Path 25" d="M181.142,117.284a6.142,6.142,0,1,1,6.142-6.142A6.032,6.032,0,0,1,181.142,117.284Zm0-8.189a2.047,2.047,0,1,0,2.047,2.047A1.934,1.934,0,0,0,181.142,109.095Z" transform="translate(-166.811 -96.811)" fill="#1b54f8" stroke="#e6f0ff" stroke-width="2"></path><path id="Path_26" data-name="Path 26" d="M154.136,35H113.189A8.213,8.213,0,0,0,105,43.189V84.136a8.213,8.213,0,0,0,8.189,8.189h40.947a8.213,8.213,0,0,0,8.189-8.189V43.189A8.213,8.213,0,0,0,154.136,35Zm-40.947,4.095h40.947a4.107,4.107,0,0,1,4.095,4.095V71.033L148.2,61a5.936,5.936,0,0,0-8.6,0L129.363,71.238l-4.095-3.071a6.455,6.455,0,0,0-7.78.2l-8.394,7.166V43.189A4.107,4.107,0,0,1,113.189,39.095Zm40.947,49.136H113.189a4.107,4.107,0,0,1-4.095-4.095V81.065l11.056-9.622a1.863,1.863,0,0,1,2.457,0l4.095,3.071a4.06,4.06,0,0,0,5.323-.409l10.237-10.237a1.979,1.979,0,0,1,2.866,0l12.9,12.9v7.37A3.815,3.815,0,0,1,154.136,88.231Z" transform="translate(-105 -35)" fill="#1b54f8" stroke="#e6f0ff" stroke-width="2"></path></g></g></g><g id="Group_50" data-name="Group 50" transform="translate(0 8)"><rect id="Rectangle_38" data-name="Rectangle 38" width="130" height="71" transform="translate(222 498)" fill="#5c9bfc"></rect><rect id="Rectangle_36" data-name="Rectangle 36" width="130" height="72" transform="translate(213 506)" fill="#b3d0fc"></rect><rect id="Rectangle_37" data-name="Rectangle 37" width="129" height="73" transform="translate(205 515)" fill="#e6f0ff"></rect><g id="Mask_Group_2" data-name="Mask Group 2" transform="translate(-1576 708.501)" clip-path="url(#clip-path-3)"><g id="noun-text-4826472" transform="translate(1822.825 -186.725)"><path id="Path_16" data-name="Path 16" d="M182.657,0H139.319a.879.879,0,0,0-.879.879V57.747a.879.879,0,0,0,.879.879h43.338a.88.88,0,0,0,.879-.879V.879A.879.879,0,0,0,182.657,0Zm-.879,56.868H140.2V1.759h41.579Z" transform="translate(-138.44)" fill="#1b54f8"></path><path id="Path_17" data-name="Path 17" d="M264.159,116.559H295.3a.879.879,0,0,0,0-1.759H264.159a.879.879,0,0,0,0,1.759Z" transform="translate(-257.181 -109.191)" fill="#1b54f8"></path><path id="Path_18" data-name="Path 18" d="M264.159,272.3h25.92a.879.879,0,1,0,0-1.759h-25.92a.879.879,0,1,0,0,1.759Z" transform="translate(-257.181 -257.323)" fill="#1b54f8"></path><path id="Path_19" data-name="Path 19" d="M264.159,428.029h15.571a.879.879,0,0,0,0-1.759H264.159a.879.879,0,1,0,0,1.759Z" transform="translate(-257.181 -405.444)" fill="#1b54f8"></path><path id="Path_20" data-name="Path 20" d="M264.159,583.759H286.6a.879.879,0,0,0,0-1.759H264.159a.879.879,0,1,0,0,1.759Z" transform="translate(-257.181 -553.566)" fill="#1b54f8"></path><path id="Path_21" data-name="Path 21" d="M264.159,739.489h10.058a.879.879,0,0,0,0-1.759H264.159a.879.879,0,1,0,0,1.759Z" transform="translate(-257.181 -701.688)" fill="#1b54f8"></path><path id="Path_22" data-name="Path 22" d="M264.159,895.219h29.4a.879.879,0,0,0,0-1.759h-29.4a.879.879,0,1,0,0,1.759Z" transform="translate(-257.181 -849.809)" fill="#1b54f8"></path><path id="Path_23" data-name="Path 23" d="M264.159,1050.959h15.571a.879.879,0,1,0,0-1.759H264.159a.879.879,0,1,0,0,1.759Z" transform="translate(-257.181 -997.941)" fill="#1b54f8"></path></g></g></g><g id="Group_48" data-name="Group 48" transform="translate(0 8)"><rect id="Rectangle_35" data-name="Rectangle 35" width="130" height="71" transform="translate(54 406)" fill="#5c9bfc"></rect><rect id="Rectangle_33" data-name="Rectangle 33" width="130" height="72" transform="translate(45 414)" fill="#b3d0fc"></rect><rect id="Rectangle_34" data-name="Rectangle 34" width="129" height="73" transform="translate(37 425)" fill="#e6f0ff"></rect><g id="Mask_Group_3" data-name="Mask Group 3" transform="translate(-1842 618.998)" clip-path="url(#clip-path-4)"><g id="Group_46" data-name="Group 46" transform="translate(1915.876 -183.508)"><path id="Path_24" data-name="Path 24" d="M133.278,74.571a1.025,1.025,0,0,1-1.026,1.024H89.018A1.024,1.024,0,0,1,88,74.571V70.13h37.043a2.775,2.775,0,0,0,2.77-2.774V33.52h4.443a1.026,1.026,0,0,1,1.026,1.024Zm-52.5-7.215a1.026,1.026,0,0,0,1.027,1.024h43.234a1.024,1.024,0,0,0,1.021-1.024V27.328a1.024,1.024,0,0,0-1.021-1.024H81.805a1.027,1.027,0,0,0-1.027,1.024Zm51.473-35.589h-4.442V27.328a2.775,2.775,0,0,0-2.77-2.773H81.8a2.777,2.777,0,0,0-2.775,2.773V67.356A2.777,2.777,0,0,0,81.8,70.129h4.443V74.57a2.775,2.775,0,0,0,2.77,2.774h43.234a2.777,2.777,0,0,0,2.775-2.774V34.543a2.777,2.777,0,0,0-2.776-2.774Zm-31.9,21.4,10.079-5.821-10.079-5.82Zm11.345-7.112-10.855-6.268a1.493,1.493,0,0,0-2.24,1.292V53.611a1.49,1.49,0,0,0,2.24,1.291l10.855-6.267a1.493,1.493,0,0,0,0-2.584Zm-8.275,15.7a14.43,14.43,0,1,0-10.186-4.227,14.412,14.412,0,0,0,10.186,4.227Zm0-30.575a16.181,16.181,0,1,0,11.425,4.738,16.161,16.161,0,0,0-11.425-4.738Z" transform="translate(-79.03 -24.555)" fill="#1b54f8" fill-rule="evenodd"></path></g></g></g></g></svg> 